# xmcd
#
# Track frame offsets: 
#        150
#        30314
#        53002
#        78906
#        109739
#        134867
#        160970
#        192942
#        219385
#        235060
#        263294
#        286561
#
# Disc length: 4344 seconds
#
# Revision: 5
# Processed by: cddbd v1.5.2PL0 Copyright (c) Steve Scherf et al.
# Submitted via: ExactAudioCopy v0.95b4
#
DISCID=9610f60c
DTITLE=Various Artist - U60311 Compilation - house division Vol. 1 - 
DTITLE=CD 2
DYEAR=2002
DGENRE=House
TTITLE0=Steve Bug - You Make Me Feel (v2)
TTITLE1=Gamat 3000 - Solitaire
TTITLE2=M.A.N.D.Y - Put Put Put
TTITLE3=Filippo Naughty Moscatello - @ The bar with the sharks
TTITLE4=2Raumwohnung - Sexy Girl (Tobi Neumann meeting the girls Rmx)
TTITLE5=Sieg über die Sonne - I'm not a Sound (2Raumwohnung Rmx)
TTITLE6=Sven Väth - Mind Games (Tobi Neumann Remix)
TTITLE7=Octave One feat. Ann Saunderson - Blackwater (Alter Ego Vocal 
TTITLE7=Remix)
TTITLE8=Peter Licht - Die Transsylvanische Verwandte ist da (Ellen Ali
TTITLE8=en RMX)
TTITLE9=Golden Boy with Miss Kittin - Pippin Kittin (Glove Tension Dub
TTITLE9=)
TTITLE10=Jean Jaques Smoothie - 2 People (Mirwais Extended Mix)
TTITLE11=Lo Fidelity Allstars - Lo Fi's in Ibiza (Stripped To The Bone
TTITLE11=Mix)
EXTD=YEAR: 2002 ID3G: 35
EXTT0=
EXTT1=
EXTT2=
EXTT3=
EXTT4=
EXTT5=
EXTT6=
EXTT7=
EXTT8=
EXTT9=
EXTT10=
EXTT11=
PLAYORDER=
